# xmcd
#
# Track frame offsets: 
#        150
#        16781
#        31188
#        46898
#        60536
#        73178
#        87930
#        102038
#        119435
#        134113
#        149928
#        166593
#        179271
#        194981
#
# Disc length: 2787 seconds
#
# Revision: 0
# Processed by: cddbd v1.4PL0 Copyright (c) Steve Scherf et al.
# Submitted via: ExactAudioCopy v0.90a11
#
DISCID=cc0ae10e
DTITLE=Pit Bicha e Pit Bitoca-MPBicha - Pit Bicha e Pit Bitoca-MPBicha
DYEAR=1900
DGENRE=
TTITLE0=Meu Segredo
TTITLE1=Quadrilha do Pit
TTITLE2=Rap do Pit
TTITLE3=Samba do Pit
TTITLE4=Forrozão do Pit
TTITLE5=Baião do Pit
TTITLE6=Festa do Pit
TTITLE7=Baile do Pit
TTITLE8=Carnaval do Pit
TTITLE9=Copa do Pit
TTITLE10=Meu Segredo (faixa Bônus - Karaokê)
TTITLE11=Forrozão do Pit (faixa Bônus - Karaokê)
TTITLE12=Rap do Pit (faixa Bônus - Karaokê)
TTITLE13=Festa do Pit (faixa Bônus - Karaokê)
EXTD=
EXTT0=
EXTT1=
EXTT2=
EXTT3=
EXTT4=
EXTT5=
EXTT6=
EXTT7=
EXTT8=
EXTT9=
EXTT10=
EXTT11=
EXTT12=
EXTT13=
PLAYORDER=
